<svg width="22" height="22" viewBox="0 0 22 22" fill="none" xmlns="http://www.w3.org/2000/svg">
<g id="Frame" clip-path="url(#clip0_116_348)">
<g id="Group">
<path id="Vector" d="M8.62549 6.79187C9.12261 5.82565 10.1296 5.16479 11.291 5.16479C12.9455 5.16479 14.2868 6.50606 14.2868 8.16056M12.283 10.0861C12.7138 8.96012 13.8045 8.16056 15.0819 8.16056C16.7364 8.16056 18.0777 9.50182 18.0777 11.1563C18.0777 12.3221 17.4117 13.3324 16.4395 13.8275" stroke="white" stroke-width="1.2" stroke-miterlimit="10"/>
<path id="Vector_2" d="M4.65776 10.8633C4.44494 10.4517 4.32471 9.98449 4.32471 9.48917C4.32471 7.83467 5.66597 6.49341 7.32047 6.49341C8.97497 6.49341 10.3162 7.83467 10.3162 9.48917M11.2987 15.6929C11.4102 14.14 12.7053 12.9148 14.2866 12.9148C15.9411 12.9148 17.2824 14.256 17.2824 15.9105C17.2824 17.565 15.9411 18.9063 14.2866 18.9063C13.4753 18.9063 12.7393 18.5838 12.1999 18.06" stroke="white" stroke-width="1.2" stroke-miterlimit="10"/>
<path id="Vector_3" d="M7.65234 11.5172C8.05477 10.3376 9.17247 9.48926 10.4883 9.48926C12.1428 9.48926 13.4841 10.8305 13.4841 12.485C13.4841 12.666 13.4681 12.8433 13.4373 13.0154" stroke="white" stroke-width="1.2" stroke-miterlimit="10"/>
<path id="Vector_4" d="M2.87503 14.9373C2.70532 14.5616 2.61084 14.1445 2.61084 13.7055C2.61084 12.051 3.9521 10.7097 5.6066 10.7097C7.2611 10.7097 8.60236 12.051 8.60236 13.7055C8.60236 14.1576 8.50221 14.5863 8.32287 14.9707" stroke="white" stroke-width="1.2" stroke-miterlimit="10"/>
<path id="Vector_5" d="M6.42269 18.9483C5.98072 20.0514 4.90171 20.8304 3.64078 20.8304C1.98628 20.8304 0.64502 19.4891 0.64502 17.8346C0.64502 16.1801 1.98628 14.8389 3.64078 14.8389C4.90166 14.8389 5.98059 15.6178 6.42265 16.7208" stroke="white" stroke-width="1.2" stroke-miterlimit="10"/>
<path id="Vector_6" d="M9.20426 20.8304C10.8588 20.8304 12.2 19.4891 12.2 17.8346C12.2 16.1801 10.8588 14.8389 9.20426 14.8389C7.54974 14.8389 6.2085 16.1801 6.2085 17.8346C6.2085 19.4891 7.54974 20.8304 9.20426 20.8304Z" stroke="white" stroke-width="1.2" stroke-miterlimit="10"/>
<path id="Vector_7" d="M14.6733 7.57628C15.8806 6.82396 17.1373 5.89935 17.9116 4.72985C18.2745 4.18179 18.4734 3.50985 18.3811 2.85905C18.2888 2.20826 17.8807 1.59155 17.2803 1.32405C15.9027 0.710356 14.4804 2.02918 14.9895 3.46845C15.4484 4.76579 16.9628 5.49774 18.3647 5.56419C19.7829 5.63142 20.6014 5.2682 21.6215 4.52859" stroke="white" stroke-width="1.2" stroke-miterlimit="10"/>
</g>
</g>
<defs>
<clipPath id="clip0_116_348">
<rect width="22" height="22" fill="white"/>
</clipPath>
</defs>
</svg>
