<svg width="22" height="22" viewBox="0 0 22 22" fill="none" xmlns="http://www.w3.org/2000/svg">
<g id="map-pin">
<path id="Vector" d="M19.25 9.16675C19.25 15.5834 11 21.0834 11 21.0834C11 21.0834 2.75 15.5834 2.75 9.16675C2.75 6.97871 3.61919 4.88029 5.16637 3.33312C6.71354 1.78594 8.81196 0.916748 11 0.916748C13.188 0.916748 15.2865 1.78594 16.8336 3.33312C18.3808 4.88029 19.25 6.97871 19.25 9.16675Z" fill="white"/>
<path id="Vector_2" d="M11 12.1667C12.6569 12.1667 14 10.8236 14 9.16675C14 7.50989 12.6569 6.16675 11 6.16675C9.34315 6.16675 8 7.50989 8 9.16675C8 10.8236 9.34315 12.1667 11 12.1667Z" fill="#222222"/>
</g>
</svg>
